<?xml version="1.0" encoding="utf-8"?>
<svg width="100%" height="100%" viewBox="0 0 8 16" xmlns="http://www.w3.org/2000/svg" xmlns:bx="https://boxy-svg.com">
  <polygon points="0,16 8,16 8,2.5 4,0 0,2.5" fill="#020041"/>
  <path d="M 305 440.738 L 305.377 441.366 L 306.127 441.369 L 305.755 442 L 306.127 442.631 L 305.377 442.634 L 305 443.262 L 304.623 442.634 L 303.873 442.631 L 304.245 442 L 303.873 441.369 L 304.623 441.366 Z" style="fill: rgb(216, 216, 216);" transform="matrix(-0.488895, -0.872342, 0.872342, -0.488895, -232.51772, 490.217147)" bx:shape="star 305 442 1.301 1.262 0.58 6 1@e492c121"/>
  <path d="M 305 440.738 L 305.377 441.366 L 306.127 441.369 L 305.755 442 L 306.127 442.631 L 305.377 442.634 L 305 443.262 L 304.623 442.634 L 303.873 442.631 L 304.245 442 L 303.873 441.369 L 304.623 441.366 Z" style="fill: rgb(216, 216, 216);" transform="matrix(-0.488895, -0.872342, 0.872342, -0.488895, -232.527349, 493.248092)" bx:shape="star 305 442 1.301 1.262 0.58 6 1@e492c121"/>
  <path d="M 305 440.738 L 305.377 441.366 L 306.127 441.369 L 305.755 442 L 306.127 442.631 L 305.377 442.634 L 305 443.262 L 304.623 442.634 L 303.873 442.631 L 304.245 442 L 303.873 441.369 L 304.623 441.366 Z" style="fill: rgb(216, 216, 216);" transform="matrix(-0.488895, -0.872342, 0.872342, -0.488895, -232.5472, 496.343978)" bx:shape="star 305 442 1.301 1.262 0.58 6 1@e492c121"/>
</svg>